<?xml version="1.0" encoding="iso-8859-1"?>
<!-- Generator: Adobe Illustrator 19.0.0, SVG Export Plug-In . SVG Version: 6.00 Build 0)  -->
<svg version="1.1" id="Capa_1" xmlns="http://www.w3.org/2000/svg" xmlns:xlink="http://www.w3.org/1999/xlink" x="0px" y="0px"
	 viewBox="0 0 512 512" style="enable-background:new 0 0 512 512;" xml:space="preserve">
<g>
	<path style="fill:#527F72;" d="M512,98.242v356c0,6.369-3.43,12.244-8.976,15.375s-12.348,3.032-17.801-0.258l-66.501-40.13
		c-5.61-3.385-12.634-3.385-18.244,0l-84.157,50.784c-5.61,3.385-12.634,3.385-18.244,0l-84.156-50.784
		c-5.61-3.385-12.634-3.385-18.244,0l-84.157,50.784c-5.61,3.385-12.634,3.385-18.244,0L8.533,428.873
		C3.237,425.678,0,419.943,0,413.758v-356c0-6.369,3.43-12.244,8.976-15.375c5.546-3.131,12.348-3.032,17.801,0.258l66.501,40.13
		c5.61,3.385,12.634,3.385,18.244,0l84.157-50.784c5.61-3.385,12.634-3.385,18.244,0l84.156,50.784
		c5.61,3.385,12.634,3.385,18.244,0l84.157-50.784c5.61-3.385,12.634-3.385,18.244,0l84.745,51.139
		C508.763,86.322,512,92.057,512,98.242z"/>
	<g>
		<path style="fill:#46B29D;" d="M285.308,467.862l-1.942,3.266l-69.473-41.931c-5.597-3.355-12.587-3.355-18.185,0l-84.215,50.847
			c-5.597,3.355-12.587,3.355-18.185,0l-84.745-51.2c-5.304-3.182-8.554-8.91-8.563-15.095V194.207
			c21.774,0.467,43.059,6.548,61.793,17.655l123.586,70.621c0,0,38.753,6.886,52.966,35.31
			c12.27,24.541,23.923,49.346,36.105,74.063C286.102,415.338,294.93,441.997,285.308,467.862z"/>
		<path style="fill:#46B29D;" d="M512,98.251v219.542c0-79.448-70.621-70.621-114.759-70.621s-52.966-35.31-52.966-35.31
			c-6.917-22.814-19.99-43.278-37.782-59.145c-12.456-10.501-25.61-20.145-39.371-28.866c-21.363-14.742-21.098-41.401,1.766-58.703
			l29.219,17.655c5.598,3.355,12.587,3.355,18.185,0l84.215-50.847c5.598-3.355,12.587-3.355,18.185,0l84.745,51.2
			C508.741,86.338,511.991,92.066,512,98.251z"/>
	</g>
	<g>
		<path style="fill:#E4C05C;" d="M142.521,363.724c-4.983-0.845-7.953-1.526-8.095-1.56c-4.739-1.095-9.47,1.85-10.582,6.585
			c-1.111,4.735,1.816,9.477,6.548,10.605c0,0,3.392,0.802,9.181,1.785c0.491,0.078,0.986,0.119,1.483,0.121
			c4.587-0.006,8.406-3.523,8.788-8.094C150.226,368.593,147.044,364.491,142.521,363.724z"/>
		<path style="fill:#E4C05C;" d="M194.53,366.595c-4.547,0.328-9.035,0.465-13.375,0.465l-3.935-0.043
			c-4.833,0.009-8.8,3.826-8.995,8.655c-0.093,4.876,3.784,8.905,8.66,9l4.271,0.043c4.754,0,9.664-0.155,14.651-0.517
			c2.335-0.168,4.508-1.257,6.04-3.028c1.532-1.77,2.298-4.077,2.128-6.412c-0.142-2.346-1.224-4.535-3.002-6.072
			C199.195,367.15,196.872,366.396,194.53,366.595z"/>
		<path style="fill:#E4C05C;" d="M242.569,353.362c-4.708,2.76-9.68,5.044-14.841,6.819c-4.604,1.609-7.032,6.646-5.422,11.25
			c1.609,4.604,6.646,7.032,11.25,5.422c6.264-2.164,12.298-4.945,18.013-8.302c4.194-2.485,5.58-7.9,3.095-12.095
			C252.179,352.262,246.764,350.877,242.569,353.362z"/>
		<path style="fill:#E4C05C;" d="M276.931,237.698h0.272c4.872-0.153,8.701-4.222,8.556-9.095c-0.047-1.612-0.078-3.215-0.078-4.819
			c-0.016-4.031,0.182-8.059,0.595-12.069c0.5-4.841-3.012-9.174-7.852-9.688c-4.84-0.513-9.182,2.987-9.709,7.825
			c-0.476,4.628-0.707,9.278-0.69,13.931c0,1.776,0.03,3.569,0.086,5.353C268.257,233.905,272.162,237.695,276.931,237.698z"/>
		<path style="fill:#E4C05C;" d="M350.435,135.845c-6.28,1.022-12.498,2.395-18.625,4.112c-4.24,1.199-6.945,5.341-6.34,9.705
			c0.605,4.364,4.336,7.614,8.742,7.614c0.815,0.002,1.626-0.111,2.41-0.336c5.496-1.531,11.072-2.76,16.703-3.681
			c4.809-0.797,8.06-5.342,7.263-10.151C359.789,138.299,355.245,135.047,350.435,135.845L350.435,135.845z"/>
		<path style="fill:#E4C05C;" d="M281.388,310.336c-4.698-1.297-9.558,1.458-10.858,6.155c-1.393,5.135-3.405,10.082-5.991,14.733
			c-1.149,2.04-1.439,4.452-0.808,6.706c0.631,2.254,2.133,4.165,4.174,5.311c1.316,0.748,2.805,1.14,4.319,1.138
			c3.192,0.003,6.138-1.718,7.703-4.5c3.287-5.896,5.846-12.169,7.621-18.681c0.624-2.257,0.326-4.67-0.829-6.707
			S283.646,310.959,281.388,310.336z"/>
		<path style="fill:#E4C05C;" d="M296.336,157.017c-5.448,4.235-10.246,9.245-14.241,14.871c-1.817,2.578-2.121,5.929-0.797,8.792
			c1.324,2.863,4.074,4.801,7.216,5.086s6.195-1.128,8.012-3.706c3.002-4.218,6.607-7.974,10.698-11.147
			c2.491-1.942,3.754-5.067,3.312-8.194c-0.441-3.127-2.52-5.78-5.451-6.957C302.154,154.585,298.818,155.064,296.336,157.017
			L296.336,157.017z"/>
		<path style="fill:#E4C05C;" d="M279.302,256.164c-4.84,0.588-8.288,4.987-7.703,9.828c0.737,6.103,1.409,11.991,1.772,17.543
			c0.305,4.638,4.154,8.246,8.802,8.25c0.194,0,0.392-0.009,0.586-0.018c4.865-0.32,8.551-4.522,8.233-9.388
			c-0.388-5.862-1.086-12.078-1.866-18.509C288.516,259.043,284.135,255.606,279.302,256.164z"/>
		<path style="fill:#E4C05C;" d="M397.241,132.414c-3.091,0-6.105,0.034-9.043,0.103c-4.831,0.118-8.669,4.098-8.612,8.93
			c0.057,4.832,3.987,8.72,8.819,8.725h0.216c2.802-0.069,5.675-0.103,8.621-0.103c4.875,0,8.828-3.952,8.828-8.828
			S402.117,132.414,397.241,132.414z"/>
	</g>
	<path style="fill:#D75E72;" d="M203.034,229.517c0,39.003-70.621,141.241-70.621,141.241S61.793,268.52,61.793,229.517
		s31.618-70.621,70.621-70.621S203.034,190.515,203.034,229.517z"/>
	<circle style="fill:#E6E7E8;" cx="132.414" cy="229.517" r="35.31"/>
	<path style="fill:#CC4B4C;" d="M445.043,151.112l-34.553-15.785l15.786-34.56c1.328-2.87,1.018-6.232-0.812-8.812
		c-1.831-2.579-4.902-3.981-8.05-3.674c-3.148,0.307-5.891,2.275-7.189,5.159l-15.787,34.554l-34.558-15.787
		c-2.869-1.32-6.225-1.007-8.799,0.822c-2.575,1.829-3.976,4.894-3.674,8.038c0.302,3.144,2.261,5.886,5.137,7.192l34.56,15.787
		l-15.788,34.558c-1.309,2.869-0.988,6.218,0.842,8.786c1.83,2.568,4.891,3.965,8.03,3.664c3.139-0.301,5.879-2.254,7.188-5.122
		l15.783-34.553l34.558,15.785c2.867,1.309,6.215,0.989,8.783-0.84c2.567-1.829,3.964-4.888,3.664-8.026
		C449.862,155.16,447.911,152.421,445.043,151.112L445.043,151.112z"/>
</g>
<g>
</g>
<g>
</g>
<g>
</g>
<g>
</g>
<g>
</g>
<g>
</g>
<g>
</g>
<g>
</g>
<g>
</g>
<g>
</g>
<g>
</g>
<g>
</g>
<g>
</g>
<g>
</g>
<g>
</g>
</svg>
